<svg xmlns="http://www.w3.org/2000/svg" width="501" height="360" fill="none"><g stroke="#202124" stroke-miterlimit="10" stroke-width="1.75" clip-path="url(#a)"><path d="m2.013 387.892 184.19-150.668h241.296l184.197 150.668H2.013Z"/><path d="M124.471 387.892 234.67 237.224h144.371L489.24 387.892H124.471Z"/><path d="m241.45 387.892 39.517-150.668h51.775l39.517 150.668H241.45ZM135.474 278.723h342.762M68.537 333.473h476.634M611.696-29.46 427.499 121.21H186.203L2.013-29.459h609.683Z"/><path d="M489.24-29.46 379.041 121.21H234.67L124.471-29.459H489.24Z"/><path d="M372.259-29.46 332.742 121.21h-51.775L241.45-29.459h130.809ZM478.236 79.71H135.474M545.171 24.96H68.537"/><path fill="#FFBB01" d="m381.945 178.935-46.557 26.885c-10.953 6.327-14.714 20.342-8.387 31.309 6.326 10.968 20.327 14.715 31.295 8.388l80.446-46.471-56.797-20.119v.008Z"/><path fill="#38A852" d="M346.867 109.823c-7.912 0-15.615 4.115-19.859 11.472-6.327 10.967-2.58 24.983 8.387 31.31l80.447 46.47c10.967 6.327 24.968 2.58 31.295-8.387 6.327-10.968 2.58-24.983-8.388-31.31l-80.446-46.471a22.8 22.8 0 0 0-11.436-3.084Z"/><path fill="#FF5145" d="M266.831 109.823c-3.892 0-7.826.995-11.436 3.084l-80.447 46.471 56.077 20.544 47.277-27.317c10.953-6.327 14.715-20.343 8.388-31.31-4.237-7.35-11.94-11.472-19.859-11.472Z"/><path fill="#428EFF" d="M186.428 156.287c-7.913 0-15.616 4.1-19.86 11.471-6.327 10.968-2.58 24.983 8.388 31.31l80.446 46.471c10.953 6.327 24.969 2.58 31.296-8.388 6.326-10.967 2.579-24.983-8.388-31.309l-80.461-46.471a22.677 22.677 0 0 0-11.421-3.084Z"/></g><defs><clipPath id="a"><path fill="#fff" d="M.5-30h612.71v418.432H.5z"/></clipPath></defs></svg>