<svg xmlns="http://www.w3.org/2000/svg" width="303" height="170" fill="none"><g clip-path="url(#a)"><rect width="301.75" height="170" x=".5" fill="#428EFF" rx="11.049"/><path stroke="#202124" stroke-miterlimit="10" stroke-width="2" d="m-16.736 84.695 292.712-.007M111.611 84.694l79.577-50.864h87.069M113.055 135.523h90.895M113.055 33.857 33.223 84.693M313.088 166.523 190.432 84.688m-77.377 50.835 78.419-50.835M109.059 135.524 33.224 84.695"/><path fill="#FF5145" stroke="#202124" stroke-miterlimit="10" stroke-width="2" d="M99.439 84.694c0 7.381 5.978 13.365 13.353 13.365s13.354-5.984 13.354-13.365c0-7.38-5.979-13.364-13.354-13.364-7.375 0-13.353 5.984-13.353 13.364ZM21.16 84.694c0 7.381 5.98 13.365 13.354 13.365 7.375 0 13.353-5.984 13.353-13.365 0-7.38-5.978-13.364-13.353-13.364S21.16 77.314 21.16 84.694Z"/><path fill="#E8EAED" stroke="#202124" stroke-miterlimit="10" stroke-width="2" d="M100.167 34.364c0 7.381 5.979 13.365 13.354 13.365 7.375 0 13.353-5.984 13.353-13.365 0-7.38-5.978-13.364-13.353-13.364s-13.354 5.983-13.354 13.364Z"/><path fill="#428EFF" stroke="#202124" stroke-miterlimit="10" stroke-width="2" d="M100.167 135.657c0 7.381 5.979 13.365 13.354 13.365 7.375 0 13.353-5.984 13.353-13.365s-5.978-13.364-13.353-13.364-13.354 5.983-13.354 13.364ZM177.375 34.364c0 7.381 5.979 13.365 13.354 13.365 7.375 0 13.353-5.984 13.353-13.365 0-7.38-5.978-13.364-13.353-13.364s-13.354 5.983-13.354 13.364Z"/><path fill="#E8EAED" stroke="#202124" stroke-miterlimit="10" stroke-width="2" d="M177.375 135.657c0 7.381 5.979 13.365 13.354 13.365 7.375 0 13.353-5.984 13.353-13.365s-5.978-13.364-13.353-13.364-13.354 5.983-13.354 13.364Z"/><path fill="#FF5145" stroke="#202124" stroke-miterlimit="10" stroke-width="2" d="M177.375 84.687c0 7.38 5.979 13.364 13.354 13.364 7.375 0 13.353-5.983 13.353-13.364 0-7.381-5.978-13.365-13.353-13.365s-13.354 5.984-13.354 13.365ZM255.311 135.657c0 7.381 5.978 13.365 13.353 13.365s13.354-5.984 13.354-13.365-5.979-13.364-13.354-13.364c-7.375 0-13.353 5.983-13.353 13.364Z"/><path fill="#E8EAED" stroke="#202124" stroke-miterlimit="10" stroke-width="2" d="M255.311 34.364c0 7.381 5.978 13.365 13.353 13.365s13.354-5.984 13.354-13.365c0-7.38-5.979-13.364-13.354-13.364-7.375 0-13.353 5.983-13.353 13.364Z"/><path fill="#428EFF" stroke="#202124" stroke-miterlimit="10" stroke-width="2" d="M255.311 84.687c0 7.38 5.978 13.364 13.353 13.364s13.354-5.983 13.354-13.364c0-7.381-5.979-13.365-13.354-13.365-7.375 0-13.353 5.984-13.353 13.365Z"/></g><defs><clipPath id="a"><rect width="301.75" height="170" x=".5" fill="#fff" rx="11.049"/></clipPath></defs></svg>