<svg xmlns="http://www.w3.org/2000/svg" width="302" height="170" fill="none"><g clip-path="url(#a)"><rect width="301.75" height="170" fill="#E8EAED" rx="11.049"/><rect width="191.775" height="213.131" x="88.991" y="20" fill="#E8EAED" stroke="#202124" stroke-width="2" rx="16.726"/><mask id="b" width="172" height="157" x="98" y="42" maskUnits="userSpaceOnUse" style="mask-type:alpha"><rect width="153.984" height="168.909" x="268.527" y="43.042" fill="#E8EAED" stroke="#202124" stroke-width="2" rx="5.359" transform="rotate(90 268.527 43.042)"/></mask><g stroke="#202124" stroke-miterlimit="10" stroke-width="2" mask="url(#b)"><path fill="#38A852" d="m226.742 97.923-52.428-41.368c-3.899-3.076-9.769-.906-10.564 3.903l-10.749 64.69c-.801 4.809 4.071 8.656 8.771 6.917l63.177-23.322c4.693-1.733 5.692-7.744 1.8-10.82h-.007Z"/><path fill="#428EFF" d="M78.251 155.382v.004c.49 10.654 9.519 18.893 20.164 18.402l64.64-2.982c10.646-.491 18.878-9.526 18.387-20.181v-.003c-.49-10.655-9.518-18.894-20.164-18.403l-64.64 2.982c-10.645.491-18.878 9.527-18.387 20.181Z"/><path fill="#fff" d="M195.141 142.434c0-17.266 13.986-31.263 31.237-31.263 17.252 0 31.237 13.997 31.237 31.263 0 17.266-13.985 31.263-31.237 31.263-17.251 0-31.237-13.997-31.237-31.263ZM81.792 107.183c0-14.93 12.092-27.032 27.009-27.032 14.916 0 27.009 12.103 27.009 27.032s-12.093 27.031-27.009 27.031c-14.917 0-27.01-12.102-27.01-27.031Z"/></g><rect width="153.984" height="168.909" x="268.527" y="43.043" stroke="#202124" stroke-width="2" rx="5.359" transform="rotate(90 268.527 43.043)"/><path fill="#E8EAED" stroke="#202124" stroke-width="2" d="M51.45 34.18h33.233a6.09 6.09 0 0 1 6.086 5.881l1.283 37.224a6.09 6.09 0 0 1-6.087 6.3H50.167a6.09 6.09 0 0 1-6.087-6.3l1.283-37.224a6.09 6.09 0 0 1 6.086-5.88ZM84.683 205.891H51.45a6.09 6.09 0 0 1-6.087-5.88l-1.282-37.224a6.09 6.09 0 0 1 6.087-6.3h35.798a6.09 6.09 0 0 1 6.087 6.3l-1.283 37.224a6.09 6.09 0 0 1-6.087 5.88Z"/><rect width="93.638" height="93.718" x="20.805" y="73.177" fill="#E8EAED" stroke="#202124" stroke-width="2" rx="46.819"/><mask id="c" width="78" height="79" x="28" y="81" maskUnits="userSpaceOnUse" style="mask-type:alpha"><rect width="75.042" height="75.106" x="29.66" y="82.927" fill="#E8EAED" stroke="#202124" stroke-width="2" rx="37.521"/></mask><g stroke="#202124" stroke-miterlimit="10" stroke-width="2" mask="url(#c)"><path fill="#428EFF" d="M51.687 157.159v.004c.49 10.654 9.518 18.893 20.164 18.402l64.64-2.982c10.646-.491 18.878-9.526 18.387-20.181v-.003c-.491-10.655-9.519-18.894-20.164-18.403l-64.64 2.982c-10.646.491-18.878 9.527-18.387 20.181Z"/><path fill="#fff" d="M81.794 107.185c0-14.929 12.092-27.03 27.009-27.03 14.916 0 27.009 12.101 27.009 27.03s-12.093 27.032-27.009 27.032c-14.917 0-27.01-12.103-27.01-27.032Z"/></g><rect width="75.042" height="75.106" x="29.66" y="82.927" stroke="#202124" stroke-width="2" rx="37.521"/></g><defs><clipPath id="a"><rect width="301.75" height="170" fill="#fff" rx="11.049"/></clipPath></defs></svg>