<svg xmlns="http://www.w3.org/2000/svg" width="329" height="250" fill="none"><g clip-path="url(#a)"><path fill="#E8EAED" stroke="#202124" stroke-linecap="round" stroke-linejoin="round" stroke-width="1.5" d="M242.065 194.113c44.814 8.034 87.656-21.783 95.689-66.597 8.034-44.815-21.783-87.656-66.597-95.69-44.815-8.033-87.656 21.784-95.69 66.598-8.033 44.815 21.784 87.656 66.598 95.689Z"/><path fill="#428EFF" stroke="#202124" stroke-linecap="round" stroke-linejoin="round" stroke-width="1.5" d="M174.587 121.423c13.533 43.411 45.918 13.299 59.001-6.458 15.482-23.376 25.139-53.496 30.621-84.082.101.008.204.016.304.027l1.321.142c.22.026.439.048.662.075-17.364 96.862-54.834 142.669-79.643 125.77a82.347 82.347 0 0 1-12.266-35.474Z"/><path fill="#FF5145" stroke="#202124" stroke-linecap="round" stroke-linejoin="round" stroke-width="1.5" d="M212.977 182.936a82.663 82.663 0 0 1-26.125-26.035c24.809 16.899 62.279-28.909 79.643-125.771.069.01.136.014.206.023l1.851.254c.118.018.241.033.36.051-10.077 56.217-29.952 132.463-55.938 151.478h.003Z"/><path fill="#38A852" stroke="#202124" stroke-linecap="round" stroke-linejoin="round" stroke-width="1.5" d="m268.916 31.455.053.01 2.187.361-29.092 162.291a82.2 82.2 0 0 1-29.087-11.181c25.986-19.017 45.861-95.26 55.938-151.477l.001-.004Z"/><path fill="#202124" stroke="#202124" stroke-linecap="round" stroke-linejoin="round" stroke-width="1.5" d="M330.591 149.389c-27.77 36.007-47.678-3.479-53.084-26.55-6.398-27.3-4.991-58.898.492-89.484a10.02 10.02 0 0 0-.294-.08l-1.289-.325c-.214-.053-.428-.108-.646-.16-17.364 96.862 1.862 152.833 30.996 145.603a82.348 82.348 0 0 0 23.825-29.004Z"/><path fill="#E8EAED" stroke="#202124" stroke-linecap="round" stroke-linejoin="round" stroke-width="1.5" d="M273.223 193.736a82.64 82.64 0 0 0 33.542-15.34c-29.134 7.23-48.36-48.741-30.996-145.603l-.201-.05-1.824-.405c-.118-.024-.238-.053-.356-.077-10.077 56.216-17.924 134.619-.162 161.476l-.003-.001Z"/><path fill="#FFBB01" stroke="#202124" stroke-linecap="round" stroke-linejoin="round" stroke-width="1.5" d="m273.386 32.257-.053-.01-2.177-.42-29.092 162.29c10.645 1.908 21.177 1.676 31.159-.381-17.762-26.86-9.915-105.26.162-161.476l.001-.003Z"/><path fill="#E8EAED" d="m302.514 122.128-90.006-16.135 12.799-71.4 33.434-7.886 27.98 5.016 28.592 19.005-12.799 71.4Z"/><path fill="#428EFF" stroke="#202124" stroke-linecap="round" stroke-linejoin="round" stroke-width="1.5" d="m249.829 53.6-21.743-3.898-7.751 43.24 21.743 3.897 7.751-43.239ZM282.276 104.753c12.319 2.208 24.095-5.988 26.303-18.306 2.208-12.319-5.988-24.095-18.306-26.303-12.319-2.208-24.095 5.988-26.303 18.306-2.208 12.319 5.988 24.095 18.306 26.303Z"/><path fill="#202124" d="m248.378 102.723-4.19-.751 21.328-50.313 4.193.752-21.331 50.312Z"/><path fill="#FFBB01" stroke="#202124" stroke-linecap="round" stroke-linejoin="round" stroke-width="1.5" d="M272.733 23.036c-49.67-8.904-97.152 24.142-106.056 73.812-8.904 49.67 24.142 97.153 73.812 106.057 49.671 8.903 97.153-24.143 106.057-73.813 8.903-49.67-24.143-97.153-73.813-106.056Zm-30.668 171.078c-44.816-8.034-74.63-50.877-66.597-95.69 8.033-44.813 50.873-74.631 95.689-66.597 44.816 8.033 74.631 50.876 66.598 95.689-8.034 44.813-50.877 74.631-95.69 66.598Z"/><path stroke="#202124" stroke-linecap="round" stroke-linejoin="round" stroke-width="1.5" d="m276.352 117.438-39.805-7.135"/></g><path fill="#DADCE1" stroke="#202124" stroke-linecap="round" stroke-linejoin="round" stroke-width="1.5" d="M157.45 183.216a4.528 4.528 0 0 0-2.638-1.457 32.094 32.094 0 0 0-9.955-.104 8.506 8.506 0 0 0 1.546-5.35l-.771-15.589a4.518 4.518 0 0 0-5.697-4.142h-.016l-17.369 4.766a11.23 11.23 0 0 0-10.361-3.622 5.959 5.959 0 0 0-3.705-.187h-.026l-11.052 3.039c-3.19.874-5.068 4.178-4.2 7.368l.672 2.451c.874 3.179 4.163 5.063 7.342 4.204h.021l11.058-3.038a5.909 5.909 0 0 0 1.909-.916l4.73 6.957-13.799 35.363c-.25.057-.495.125-.745.203l-21.75-24.743 1.097-.421c3.919-1.499 6.084-5.511 5.038-9.335-1.046-3.825-4.96-6.172-9.091-5.459l-14.606 2.503c-2.378.411-4.47 1.78-5.73 3.757-1.155 1.811-1.498 4.012-.946 6.026l.764 2.789c.552 2.019 1.967 3.731 3.887 4.704 2.092 1.061 4.59 1.176 6.843.312l.932-.354 1.883 2.144c.057.078.13.161.203.25l4.616 5.261-2.68 5.224a32.432 32.432 0 0 0-17.921-.302l-.125.031a32.488 32.488 0 0 0-4.985 1.816L36.545 185.23a6.146 6.146 0 0 0-.884-3.034c-1.759-2.93-5.578-3.887-8.508-2.123a6.211 6.211 0 0 0-2.602 7.535c-1.124.999-2.659 2.794-6.202 8.788-.219.375-.422.718-.604 1.031-1.186 2.024-1.322 2.206-1.644 2.424-.567.386-1.228.594-1.816.781-.375.12-.765.239-1.166.421-1.967.885-3.096 2.784-2.867 4.845.15 1.342.853 2.524 1.982 3.335 2.014 1.442 5.47 1.525 7.993.963 2.56-.562 3.95-1.639 7.311-4.246.63-.489 1.358-1.051 2.201-1.696.573-.437 2.31-1.77 2.649-1.962l.047-.021c.843-.38 1.784-.551 2.862-.525l8.21 11.895a4.603 4.603 0 0 0-.181.635A31.457 31.457 0 0 0 35 245.096c2.222 8.113 7.472 14.872 14.783 19.035 7.27 4.142 15.715 5.219 23.79 3.039l.126-.032c10.922-2.997 19.33-11.629 22.151-22.442a4.517 4.517 0 0 0 1.457-2.639 32.62 32.62 0 0 0 .396-3.689l12.275-2.232a11.883 11.883 0 0 0 7.904-5.344 11.907 11.907 0 0 0 1.712-4.72 31.95 31.95 0 0 0 4.85 8.107 4.537 4.537 0 0 0 2.575 1.567 31.465 31.465 0 0 0 30.821 8.325c8.112-2.222 14.872-7.472 19.035-14.783 4.162-7.311 5.229-15.803 3.007-23.91-2.997-10.923-11.63-19.332-22.443-22.152l.011-.01Zm-48.924 40.775a1.05 1.05 0 0 1-.739 1.295 1.062 1.062 0 0 1-.796-.098 1.057 1.057 0 0 1-.494-.641 1.068 1.068 0 0 1 .099-.801c.135-.239.369-.421.64-.494a1.05 1.05 0 0 1 1.29.739Z"/><path stroke="#202124" stroke-linejoin="round" stroke-width="1.5" d="m31.388 186.713-.214.14s.037-.015.052-.031c.058-.031.11-.068.162-.109ZM30.972 186.952l.13-.047.073-.047c-.067.042-.135.068-.203.099v-.005Z"/><path fill="#FF5445" stroke="#000" stroke-miterlimit="10" stroke-width="1.5" d="M19.269 205.773c1.878-.416 2.674-1.243 7.732-5.12 2.654-2.029 3.034-2.263 3.596-2.518 2.596-1.166 5.209-1.015 7.071-.682l-5.411-9.007c-1.062.327-2.815.983-4.465 2.346-.656.542-1.826 1.629-5.531 7.899-1.78 3.013-2.212 3.945-3.596 4.892-1.956 1.332-3.944 1.42-3.903 1.805.047.396 2.222.885 4.507.385Z"/><path fill="#B7B5B5" stroke="#000" stroke-miterlimit="10" stroke-width="1.5" d="m30.675 187.056 19.96 28.921 1.166-.702L31.8 186.286l-.203.291-.213.136a1.13 1.13 0 0 1-.162.109c-.02.01-.036.021-.052.031l-.072.047-.13.047-.084.026-.213.078.005.005Z"/><path stroke="#202124" stroke-linejoin="round" stroke-width="1.5" d="M31.174 186.853s.037-.015.052-.031c.058-.031.11-.068.162-.109l-.214.14Z"/><path fill="#B7B5B5" stroke="#000" stroke-miterlimit="10" stroke-width="1.5" d="M28.922 186.25a1.681 1.681 0 0 0 1.961.728l.084-.026c.067-.026.135-.057.203-.099l.213-.14a1.677 1.677 0 0 0-1.889-2.763 1.677 1.677 0 0 0-.572 2.305v-.005Z"/><path stroke="#202124" stroke-linejoin="round" stroke-width="1.5" d="M31.174 186.853s.037-.015.052-.031c.058-.031.11-.068.162-.109l-.214.14Z"/><path fill="#00AD40" stroke="#000" stroke-miterlimit="10" stroke-width="1.5" d="M123.517 220.827c3.939 14.362 18.775 22.812 33.137 18.873 14.361-3.939 22.812-18.774 18.873-33.136-3.939-14.362-18.775-22.812-33.136-18.873-14.362 3.939-22.813 18.774-18.874 33.136Zm4.871-1.337c-3.2-11.672 3.668-23.728 15.34-26.929 11.671-3.2 23.728 3.669 26.928 15.34 3.2 11.672-3.668 23.729-15.34 26.929-11.671 3.2-23.728-3.669-26.928-15.34Z"/><path fill="#00AD40" stroke="#000" stroke-miterlimit="10" stroke-width="1.5" d="M143.961 193.425c-11.198 3.07-17.785 14.638-14.715 25.836a20.924 20.924 0 0 0 2.451 5.588l-3.747 6.463a27.75 27.75 0 0 1-5.287-10.251c-4.069-14.83 4.657-30.154 19.493-34.218a27.77 27.77 0 0 1 11.911-.62l-3.742 6.463a20.88 20.88 0 0 0-6.358.739h-.006ZM39.381 243.899c3.94 14.362 18.775 22.813 33.136 18.874 14.362-3.939 22.813-18.775 18.874-33.136-3.94-14.362-18.775-22.813-33.137-18.874-14.361 3.939-22.812 18.775-18.873 33.136Zm4.87-1.337c-3.2-11.671 3.67-23.728 15.34-26.928 11.672-3.2 23.729 3.668 26.929 15.34 3.2 11.671-3.668 23.728-15.34 26.928-11.672 3.2-23.728-3.668-26.928-15.34Z"/><path fill="#00AD40" stroke="#000" stroke-miterlimit="10" stroke-width="1.5" d="M85.657 231.208c-3.07-11.198-14.638-17.786-25.836-14.716a20.96 20.96 0 0 0-5.588 2.451l-6.463-3.746a27.726 27.726 0 0 1 10.251-5.287c14.83-4.069 30.154 4.657 34.219 19.492a27.772 27.772 0 0 1 .619 11.911l-6.463-3.741a20.88 20.88 0 0 0-.739-6.359v-.005Z"/><path fill="#FB0" stroke="#000" stroke-miterlimit="10" stroke-width="1.5" d="m66.987 238.024 19.062-37.201-2.807-1.438-19.06 37.201 2.805 1.438ZM113.167 222.466l15.689-40.161a2.904 2.904 0 0 0-1.66-3.752l-3.279-1.264-16.729 42.867 5.984 2.31h-.005Z"/><path fill="#B7B5B5" stroke="#000" stroke-miterlimit="10" stroke-width="1.5" d="m102.734 222.373-31.237-35.53a1.4 1.4 0 1 1 2.097-1.858l31.237 35.53-2.102 1.858h.005Z"/><path fill="#FB0" stroke="#000" stroke-miterlimit="10" stroke-width="1.5" d="m102.245 221.862-25.919-29.514c-.427-.484-.302-1.291.281-1.8.583-.516 1.395-.536 1.821-.058l25.919 29.515-2.102 1.857Z"/><path fill="#FF5445" stroke="#202124" stroke-linejoin="round" stroke-width="1.5" d="m68.287 189.07 13.84-5.292c1.734-.661 2.717-2.347 2.29-3.913-.431-1.567-2.138-2.514-3.965-2.196l-14.606 2.503c-2.144.369-3.58 2.294-3.075 4.126l.765 2.789c.504 1.832 2.721 2.758 4.75 1.983Z"/><path fill="#FB0" stroke="#000" stroke-miterlimit="10" stroke-width="1.5" d="M62.558 236.911a3.504 3.504 0 0 0 4.001 2.519l42.622-7.743c4.226-.77 6.885-4.996 5.75-9.138-1.134-4.142-5.578-6.421-9.605-4.927l-40.614 15.079a3.502 3.502 0 0 0-2.16 4.21h.006Zm41.607-11.718a3.47 3.47 0 0 1 6.692-1.832 3.47 3.47 0 0 1-2.43 4.262 3.471 3.471 0 0 1-4.262-2.43Z"/><path fill="#B7B5B5" stroke="#000" stroke-miterlimit="10" stroke-width="1.5" d="m101.761 165.222 10.599-2.909a6.697 6.697 0 0 1 7.311 2.696l10.001 14.705-2.617 1.779-9.694-14.252a3.966 3.966 0 0 0-4.33-1.597l-10.381 2.846-.895-3.268h.006Z"/><path fill="#3184FF" stroke="#000" stroke-miterlimit="10" stroke-width="1.5" d="m100.054 170.21 11.05-3.03a1.472 1.472 0 0 0 1.031-1.809l-.671-2.449a1.472 1.472 0 0 0-1.81-1.031l-11.05 3.029a1.473 1.473 0 0 0-1.031 1.81l.671 2.449a1.473 1.473 0 0 0 1.81 1.031Z"/><path stroke="#000" stroke-miterlimit="10" stroke-width="1.5" d="m120.702 166.538 20.408-5.599.77 15.59a3.984 3.984 0 0 1-2.93 4.043l-7.654 2.097M141.578 170.337l-15.413 4.225M140.98 165.742l-17.343 4.756M142.036 174.968l-13.3 3.648M134.6 162.729l3.715 18.02M127.809 164.592l7.124 17.084"/><path fill="#FB0" stroke="#000" stroke-miterlimit="10" stroke-width="1.5" d="M149.842 215.577a1.623 1.623 0 0 0 2.7-1.804l-26.333-39.424a1.623 1.623 0 1 0-2.7 1.804l26.333 39.424Z"/><path fill="#3184FF" stroke="#202124" stroke-miterlimit="10" stroke-width="1.5" d="M62.612 13.323c34.536-4.46 66.2 19.96 70.661 54.496l6.937 53.716c.632 4.889-2.823 9.375-7.718 10.007L25.061 145.418c-4.89.631-9.376-2.824-10.008-7.718L8.116 83.984c-4.461-34.536 19.96-66.2 54.496-70.661Z"/><path fill="#FB0" stroke="#202124" stroke-linecap="round" stroke-linejoin="round" stroke-width="1.5" d="M63.148 17.474c32.248-4.165 61.808 18.634 65.973 50.881l6.692 51.81a6.677 6.677 0 0 1-5.763 7.472L26.436 141.02c-3.65.471-7-2.113-7.472-5.763l-6.692-51.81C8.107 51.2 30.906 21.64 63.153 17.474h-.005Z"/><path fill="#3184FF" stroke="#202124" stroke-miterlimit="10" stroke-width="1.5" d="M106.242 71.349c-.859-6.65-6.945-11.344-13.595-10.485a12.113 12.113 0 0 0-10.495 13.52 12.069 12.069 0 0 0 3.135 6.76l10.059 10.662c.742.786 2.04.618 2.557-.33l7.021-12.868a12.077 12.077 0 0 0 1.323-7.26h-.005Zm-11.67 4.424a2.896 2.896 0 0 1-3.24-2.499 2.896 2.896 0 0 1 2.5-3.24 2.896 2.896 0 0 1 3.24 2.499 2.896 2.896 0 0 1-2.5 3.24ZM64.758 34.056c-8.437 1.09-14.386 8.821-13.296 17.259 1.09 8.437 8.807 14.404 17.245 13.314 8.437-1.09 14.418-8.826 13.328-17.263-1.09-8.438-8.823-14.402-17.277-13.31Zm11.776 7.802-4.507.582a24.078 24.078 0 0 0-2.814-5.171c2.935.6 5.53 2.253 7.32 4.589ZM65.177 37.17a21.654 21.654 0 0 1 3.7 5.676l-5.837.753a21.806 21.806 0 0 1 2.137-6.429Zm-9.864 16.75a12.833 12.833 0 0 1-.793-3.007 12.57 12.57 0 0 1 .003-3.11l5.164-.666c.006 1.022.045 2.047.18 3.086.134 1.039.355 2.034.61 3.03l-5.164.667Zm1.65 2.897 4.507-.582a24.084 24.084 0 0 0 2.814 5.17 12.293 12.293 0 0 1-7.321-4.588Zm2.927-12.81-4.506.581a12.336 12.336 0 0 1 5.914-6.298 24.237 24.237 0 0 0-1.408 5.716Zm8.43 17.496a21.658 21.658 0 0 1-3.7-5.675l5.836-.754a21.806 21.806 0 0 1-2.136 6.429Zm2.398-9.572-7.156.924c-.27-.989-.503-1.988-.637-3.027-.134-1.04-.159-2.077-.153-3.09l7.156-.924c.269.978.503 1.988.638 3.027.134 1.04.156 2.06.152 3.09Zm1.48 8.447a24.237 24.237 0 0 0 1.408-5.716l4.507-.582a12.405 12.405 0 0 1-5.915 6.298Zm1.606-8.846c-.007-1.023-.046-2.047-.18-3.086-.134-1.04-.356-2.034-.61-3.03l5.163-.668c.37.949.657 1.952.794 3.007a12.568 12.568 0 0 1-.004 3.11l-5.163.667ZM60.379 128.112c-.765.099-1.474-.1-2.12-.602-.65-.502-1.022-1.133-1.12-1.897l-3.216-24.893c-.098-.765.1-1.474.602-2.12.502-.65 1.133-1.022 1.898-1.12l32.549-4.205c.765-.098 1.475.1 2.12.603.65.501 1.022 1.132 1.12 1.897l3.215 24.892c.1.765-.1 1.475-.602 2.12-.501.651-1.132 1.022-1.897 1.121l-32.549 4.204Zm14.405-16.559 14.893-12.774-.34-2.633-14.924 12.537-17.62-8.334.34 2.633 17.65 8.571Z"/><path fill="#3184FF" stroke="#202124" stroke-miterlimit="10" stroke-width="1.5" d="M114.913 121.068c-.436.057-.85.028-1.259-.089a3.218 3.218 0 0 1-1.083-.539l-15.218-11.736a3.149 3.149 0 0 1-.796-.91 3.06 3.06 0 0 1-.406-1.196l-1.415-10.952c-.109-.84.1-1.6.62-2.28a2.977 2.977 0 0 1 2.048-1.18l10.952-1.414a3.152 3.152 0 0 1 2.343.634l15.223 11.774c.663.511 1.052 1.194 1.162 2.05.111.857-.092 1.616-.603 2.279l-9.538 12.367a3.225 3.225 0 0 1-.888.793c-.35.215-.727.346-1.136.399h-.006Zm-12.494-20.19a2.23 2.23 0 0 0 1.539-.883 2.24 2.24 0 0 0 .463-1.713 2.236 2.236 0 0 0-.883-1.54 2.239 2.239 0 0 0-1.713-.462 2.238 2.238 0 0 0-1.539.883 2.237 2.237 0 0 0-.463 1.713c.082.635.378 1.15.883 1.539a2.239 2.239 0 0 0 1.713.463ZM29.1 131.9s7.908-3.501 13.28-9.768c5.298-6.186 5.578-15.463 5.578-15.463l-4.346-1.141s-.297 8.376-5.294 13.981c-5.059 5.679-12.48 8.876-12.48 8.876l3.263 3.515Z"/><path fill="#3184FF" stroke="#202124" stroke-miterlimit="10" stroke-width="1.5" d="m51.424 102.565-28.446 3.674.616 4.77 28.447-3.674-.617-4.77ZM38.815 99.753l-4.367.564.564 4.367 4.367-.564-.564-4.367ZM28.777 114.478c-.032.174 3.36 6.426 9.42 9.781 6.056 3.357 12.657 4.831 12.657 4.831l2.285-4.264s-5.775-1.055-11.05-3.582c-5.275-2.526-8.141-7.466-8.141-7.466l-5.17.7ZM78.537 77.374l.072.554c.255 2.234-.302 4.15-1.702 5.853-1.41 1.71-3.186 2.673-5.424 2.934-2.244.263-4.189-.258-5.955-1.601-1.76-1.333-2.74-3.068-3.006-5.305l-.072-.555-3.446.402.071.554c.33 2.892 1.629 5.319 3.84 7.218 2.08 1.784 4.512 2.724 7.225 2.795l.629 5.376 3.452-.402-.63-5.377c2.626-.694 4.773-2.17 6.386-4.388 1.716-2.356 2.412-5.02 2.072-7.91l-.072-.554-3.446.401.006.005Z"/><path fill="#3184FF" stroke="#202124" stroke-miterlimit="10" stroke-width="1.5" d="M71.108 83.561c1.273-.148 2.302-.74 3.057-1.763.746-1.01 1.044-2.172.894-3.46l-1.15-9.804c-.145-1.24-.714-2.257-1.693-3.012-.973-.755-2.091-1.065-3.331-.916-1.24.144-2.257.708-3.031 1.667-.773.965-1.095 2.08-.945 3.325L66.06 79.4c.15 1.284.714 2.35 1.672 3.156.972.822 2.104 1.157 3.382 1.009l-.006-.005ZM55.206 84.542a11.574 11.574 0 0 0 1.078-6.577c-.822-6.364-6.671-10.875-13.035-10.053-6.365.822-10.876 6.67-10.054 13.035.822 6.364 6.671 10.875 13.035 10.053a11.571 11.571 0 0 0 6.098-2.72l10.798 8.328 2.884-3.739-10.798-8.328-.006.001Zm-3.047-6.044c.529 4.092-2.369 7.85-6.461 8.378-4.092.528-7.85-2.37-8.378-6.462-.529-4.092 2.369-7.85 6.461-8.378 4.092-.528 7.85 2.37 8.378 6.462Z"/><defs><clipPath id="a"><path fill="#fff" d="M178.391.581 369 34.75 334.83 225.358 144.222 191.19z"/></clipPath></defs></svg>