<svg xmlns="http://www.w3.org/2000/svg" width="344" height="272" fill="none"><g clip-path="url(#a)"><mask id="b" width="344" height="272" x="0" y="0" maskUnits="userSpaceOnUse" style="mask-type:luminance"><path fill="#fff" d="M344 0H0v272h344V0Z"/></mask><g stroke="#202124" stroke-miterlimit="10" stroke-width="1.5" mask="url(#b)"><path d="M-64.453 280 78.629 162.958h187.444L409.161 280H-64.453Z"/><path d="m30.674 280 85.605-117.042h112.15L314.034 280H30.674Z"/><path d="m121.547 280 30.698-117.042h40.219L223.162 280H121.547ZM39.223 195.195h266.265M-12.775 237.726h370.258M409.161-11 266.073 106.042H78.629L-64.453-11H409.16Z"/><path d="m314.034-11-85.605 117.042h-112.15L30.674-11h283.36Z"/><path d="m223.162-11-30.698 117.042h-40.219L121.547-11h101.615ZM305.488 73.805H39.223M357.483 31.274H-12.775M395.115.342H-50.41"/><path fill="#FFBB01" d="m229.778 134.687-36.167 20.885c-8.509 4.915-11.431 15.802-6.516 24.322 4.915 8.52 15.791 11.431 24.311 6.516l62.492-36.1-44.12-15.628v.005Z"/><path fill="#38A852" d="M202.527 81a17.79 17.79 0 0 0-15.427 8.912c-4.915 8.52-2.004 19.407 6.515 24.321l62.493 36.1c8.52 4.915 19.396 2.004 24.311-6.516 4.914-8.519 2.004-19.407-6.516-24.322l-62.493-36.1A17.703 17.703 0 0 0 202.527 81Z"/><path fill="#FF5145" d="M140.353 81c-3.023 0-6.079.772-8.884 2.396l-62.492 36.099 43.561 15.959 36.726-21.221c8.509-4.914 11.431-15.802 6.516-24.322-3.292-5.71-9.276-8.911-15.427-8.911Z"/><path fill="#428EFF" d="M77.894 117.094c-6.146 0-12.13 3.185-15.427 8.912-4.915 8.519-2.004 19.407 6.516 24.321l62.492 36.1c8.508 4.915 19.396 2.004 24.311-6.516 4.915-8.519 2.004-19.407-6.516-24.322L86.766 119.49a17.612 17.612 0 0 0-8.872-2.396Z"/></g></g><defs><clipPath id="a"><path fill="#fff" d="M0 0h344v272H0z"/></clipPath></defs></svg>