<svg xmlns="http://www.w3.org/2000/svg" width="303" height="170" fill="none"><g clip-path="url(#a)"><rect width="302" height="170" x=".75" fill="#428EFF" rx="12"/><g clip-path="url(#b)"><path fill="#38A852" stroke="#202124" stroke-linejoin="round" stroke-width="2" d="m-126.934 364.191 632.981-632.549V-2.606L26.633 476.482h-142.594c-5.896 0-10.691-4.765-10.703-10.67l-.27-101.608v-.013Z"/><path fill="#38A852" stroke="#202124" stroke-linecap="round" stroke-linejoin="round" stroke-width="2" d="M72.11 364.192 505.84-69.241v265.753L229.702 472.461a13.705 13.705 0 0 1-9.691 4.01H83.083c-5.897 0-10.69-4.766-10.704-10.671l-.269-101.608Z"/><path fill="#38A852" stroke="#202124" stroke-linecap="round" stroke-linejoin="round" stroke-width="2" d="m268.544 365.46 632.981-632.55-3.166 265.753L418.944 477.75h-139.44c-5.897 0-10.691-4.766-10.704-10.671l-.269-101.607.013-.013Z"/><path fill="#FFBB01" stroke="#202124" stroke-miterlimit="10" stroke-width="2" d="m-126.934 199.458 632.981-632.55v265.753L26.633 311.749h-142.594c-5.896 0-10.691-4.765-10.703-10.671l-.27-101.607v-.013Z"/><path fill="#38A852" stroke="#202124" stroke-linecap="round" stroke-linejoin="round" stroke-width="2" d="M72.11 199.459 505.84-233.975V31.778l-276.137 275.95a13.708 13.708 0 0 1-9.691 4.009H83.083c-5.897 0-10.69-4.765-10.704-10.67l-.269-101.608Z"/><path fill="#38A852" stroke="#202124" stroke-miterlimit="10" stroke-width="2" d="m268.544 199.073 632.981-632.55-3.166 265.753L424.02 306.291a17.335 17.335 0 0 1-12.241 5.073H279.504c-5.897 0-10.691-4.765-10.704-10.671l-.269-101.607.013-.013Z"/><path fill="#FF5145" stroke="#202124" stroke-linecap="round" stroke-linejoin="round" stroke-width="2" d="m-127.035 35.16 433.729-433.433v265.752L30.556 143.429a13.703 13.703 0 0 1-9.69 4.009h-136.928c-5.897 0-10.691-4.765-10.704-10.67l-.269-101.608Z"/><path fill="#E8EAED" stroke="#202124" stroke-miterlimit="10" stroke-width="2" d="M-120.121 32.062H20.28c4.474 0 8.115 3.638 8.115 8.108v9.3h-156.63v-9.3c0-4.47 3.64-8.108 8.114-8.108Z"/><path fill="#fff" stroke="#202124" stroke-miterlimit="10" stroke-width="2" d="M20.27 148.119h-140.402c-4.474 0-8.114-3.638-8.114-8.109V49.176h156.63v90.834c0 4.471-3.64 8.109-8.114 8.109Z"/><path fill="#428EFF" stroke="#202124" stroke-linecap="round" stroke-linejoin="round" stroke-width="2" d="M72.11 35.16 505.84-398.273v265.752l-276.137 275.95a13.704 13.704 0 0 1-9.691 4.009H83.083c-5.897 0-10.69-4.765-10.704-10.67L72.11 35.16Z"/><path fill="#FF5145" stroke="#202124" stroke-linejoin="round" stroke-width="2" d="m271.344 33.84 630.181-631.615-3.166 265.752-473.698 473.375a19.515 19.515 0 0 1-13.805 5.713H279.504c-5.897 0-10.691-4.765-10.704-10.67l-.269-96.94 2.813-5.614Z"/><path fill="#E8EAED" stroke="#202124" stroke-miterlimit="10" stroke-width="2" d="M78.34 32.062h140.402c4.474 0 8.115 3.638 8.115 8.108v9.3H70.227v-9.3c0-4.47 3.64-8.108 8.114-8.108Z"/><path fill="#202124" d="M80.175 43.707a2.947 2.947 0 1 0-2.948-2.946 2.947 2.947 0 0 0 2.948 2.946ZM89.303 43.707a2.947 2.947 0 1 0-2.948-2.946 2.947 2.947 0 0 0 2.948 2.946Z"/><path fill="#fff" stroke="#202124" stroke-miterlimit="10" stroke-width="2" d="M218.732 148.119H78.33c-4.474 0-8.114-3.638-8.114-8.109V49.176h156.63v90.834c0 4.471-3.641 8.109-8.114 8.109Z"/><path fill="#E8EAED" stroke="#202124" stroke-miterlimit="10" stroke-width="2" d="M276.802 32.062h140.401c4.474 0 8.115 3.638 8.115 8.108v9.3h-156.63v-9.3c0-4.47 3.64-8.108 8.114-8.108Z"/><path fill="#202124" d="M278.636 43.707a2.947 2.947 0 1 0-2.948-2.946 2.947 2.947 0 0 0 2.948 2.946ZM287.764 43.707a2.947 2.947 0 1 0 0-5.892 2.947 2.947 0 1 0 0 5.892Z"/><path fill="#fff" stroke="#202124" stroke-miterlimit="10" stroke-width="2" d="M417.192 148.119H276.791c-4.474 0-8.114-3.638-8.114-8.109V49.176h156.63v90.834c0 4.471-3.641 8.109-8.115 8.109Z"/></g></g><defs><clipPath id="a"><rect width="302" height="170" x=".75" fill="#fff" rx="12"/></clipPath><clipPath id="b"><path fill="#fff" d="M-139-364.943h645v842.887h-645z"/></clipPath></defs></svg>