<svg xmlns="http://www.w3.org/2000/svg" width="302" height="170" fill="none"><g clip-path="url(#a)"><rect width="301.75" height="170" x=".25" fill="#E8EAED" rx="11.049"/><path fill="#FFBB01" stroke="#202124" stroke-width="2" d="m224.273 131.833-.003.002-73.369 57.168-73.47-57.168v-.001l-15.372-11.987L150.9 50.69l88.839 69.155-15.467 11.988Z"/><path fill="#428EFF" stroke="#202124" stroke-width="2" d="m224.273 95.965-.003.002-73.369 57.168-73.47-57.168-15.372-11.988L150.9 14.822l88.839 69.155-15.467 11.988Z"/><path fill="#FFBB01" stroke="#202124" stroke-width="2" d="m224.273 61.41-.003.002-73.369 57.168-73.47-57.168-15.372-11.988L150.9-19.733l88.839 69.155-15.467 11.988Z"/><path fill="#428EFF" stroke="#202124" stroke-width="2" d="m43.24 131.833-.003.002-73.37 57.168-73.469-57.168v-.001l-15.372-11.987 88.842-69.157 88.84 69.155-15.469 11.988Z"/><path fill="#FFBB01" stroke="#202124" stroke-width="2" d="m43.24 95.965-.003.002-73.37 57.168-73.469-57.168-15.372-11.988 88.842-69.157 88.84 69.155-15.469 11.988Z"/><path fill="#428EFF" stroke="#202124" stroke-width="2" d="m43.24 61.41-.003.002-73.37 57.168-73.469-57.168-15.372-11.988 88.842-69.157 88.84 69.155L43.238 61.41ZM405.301 131.833l-.002.002-73.37 57.168-73.469-57.168-.001-.001-15.372-11.987 88.842-69.157 88.84 69.155-15.468 11.988Z"/><path fill="#FFBB01" stroke="#202124" stroke-width="2" d="m405.301 95.965-.002.002-73.37 57.168-73.469-57.168h-.001l-15.372-11.988 88.842-69.157 88.84 69.155-15.468 11.988Z"/><path fill="#428EFF" stroke="#202124" stroke-width="2" d="m405.301 61.41-.002.002-73.37 57.168-73.469-57.168h-.001l-15.372-11.988 88.842-69.157 88.84 69.155-15.468 11.988Z"/></g><defs><clipPath id="a"><rect width="301.75" height="170" x=".25" fill="#fff" rx="11.049"/></clipPath></defs></svg>