<svg xmlns="http://www.w3.org/2000/svg" width="303" height="170" fill="none"><g clip-path="url(#a)"><rect width="302" height="170" x=".25" fill="#202124" rx="11.049"/><path stroke="#E8EAED" stroke-miterlimit="10" stroke-width="2" d="m-17 84.695 292.954-.007M111.453 84.694l79.644-50.864h87.14M112.899 135.523h90.97M112.898 33.857 33.001 84.693M313.097 166.523 190.339 84.688m-77.441 50.835 78.484-50.835M108.898 135.524 33.001 84.695"/><path fill="#FF5145" d="M99.271 84.694c0 7.381 5.984 13.365 13.365 13.365S126 92.075 126 84.694c0-7.38-5.983-13.364-13.364-13.364-7.381 0-13.365 5.984-13.365 13.364ZM20.927 84.694c0 7.381 5.984 13.365 13.365 13.365 7.38 0 13.364-5.984 13.364-13.365 0-7.38-5.983-13.364-13.364-13.364-7.381 0-13.365 5.984-13.365 13.364Z"/><path fill="#E8EAED" d="M100 34.364c0 7.381 5.983 13.365 13.364 13.365 7.381 0 13.365-5.984 13.365-13.365 0-7.38-5.984-13.364-13.365-13.364S100 26.983 100 34.364Z"/><path fill="#428EFF" d="M100 135.657c0 7.381 5.983 13.365 13.364 13.365 7.381 0 13.365-5.984 13.365-13.365s-5.984-13.364-13.365-13.364S100 128.276 100 135.657Z"/><path fill="#38A852" d="M177.271 34.364c0 7.381 5.984 13.365 13.365 13.365S204 41.745 204 34.364C204 26.984 198.017 21 190.636 21c-7.381 0-13.365 5.983-13.365 13.364Z"/><path fill="#E8EAED" d="M177.271 135.657c0 7.381 5.984 13.365 13.365 13.365S204 143.038 204 135.657s-5.983-13.364-13.364-13.364c-7.381 0-13.365 5.983-13.365 13.364Z"/><path fill="#FF5145" d="M177.271 84.687c0 7.38 5.984 13.364 13.365 13.364S204 92.068 204 84.687c0-7.381-5.983-13.365-13.364-13.365-7.381 0-13.365 5.984-13.365 13.365ZM255.271 135.657c0 7.381 5.984 13.365 13.365 13.365S282 143.038 282 135.657s-5.983-13.364-13.364-13.364c-7.381 0-13.365 5.983-13.365 13.364Z"/><path fill="#E8EAED" d="M255.271 34.364c0 7.381 5.984 13.365 13.365 13.365S282 41.745 282 34.364C282 26.984 276.017 21 268.636 21c-7.381 0-13.365 5.983-13.365 13.364Z"/><path fill="#FFBB01" d="M255.271 84.687c0 7.38 5.984 13.364 13.365 13.364S282 92.068 282 84.687c0-7.381-5.983-13.365-13.364-13.365-7.381 0-13.365 5.984-13.365 13.365Z"/></g><defs><clipPath id="a"><rect width="302" height="170" x=".25" fill="#fff" rx="11.049"/></clipPath></defs></svg>