<svg xmlns="http://www.w3.org/2000/svg" width="303" height="170" fill="none"><g clip-path="url(#a)"><rect width="302" height="170" x=".5" fill="#202124" rx="11.049"/><path fill="#E8EAED" stroke="#202124" stroke-width="2" d="m224.711 131.833-.002.001-73.432 57.169-73.53-57.169h-.001L62.36 119.847l88.917-69.157 88.913 69.155-15.48 11.988Z"/><path fill="#FFBB01" stroke="#202124" stroke-width="2" d="m224.711 95.964-.002.002-73.432 57.169-73.53-57.169h-.001L62.36 83.979l88.917-69.157 88.913 69.154-15.48 11.988Z"/><path fill="#428EFF" stroke="#202124" stroke-width="2" d="m224.711 61.41-.002.001-73.432 57.169-73.53-57.169h-.001L62.36 49.424l88.917-69.157 88.913 69.155-15.48 11.988Z"/><path fill="#FF5145" stroke="#202124" stroke-width="2" d="m43.527 131.833-.002.001-73.431 57.169-73.531-57.169h-.001l-15.384-11.987 88.916-69.157 88.914 69.155-15.48 11.988Z"/><path fill="#428EFF" stroke="#202124" stroke-width="2" d="m43.527 95.964-.002.002-73.431 57.169-73.531-57.169h-.001l-15.384-11.987 88.916-69.157 88.914 69.154-15.48 11.988Z"/><path fill="#E8EAED" stroke="#202124" stroke-width="2" d="m43.527 61.41-.002.001-73.431 57.169-73.531-57.169h-.001l-15.384-11.987 88.916-69.157 88.914 69.155-15.48 11.988Z"/><path fill="#428EFF" stroke="#202124" stroke-width="2" d="m405.889 131.833-.002.001-73.432 57.169-73.531-57.169-15.385-11.987 88.917-69.157 88.913 69.155-15.48 11.988Z"/><path fill="#38A852" stroke="#202124" stroke-width="2" d="m405.889 95.964-.002.002-73.432 57.169-73.531-57.169-15.385-11.987 88.917-69.157 88.913 69.154-15.48 11.988Z"/><path fill="#FF5145" stroke="#202124" stroke-width="2" d="m405.889 61.41-.002.001-73.432 57.169-73.531-57.169-15.385-11.987 88.917-69.157 88.913 69.155-15.48 11.988Z"/></g><defs><clipPath id="a"><rect width="302" height="170" x=".5" fill="#fff" rx="11.049"/></clipPath></defs></svg>