<svg xmlns="http://www.w3.org/2000/svg" width="302" height="170" fill="none"><g clip-path="url(#a)"><rect width="302" height="170" fill="#202124" rx="11.049"/><rect width="191.936" height="213.131" x="89.064" y="19.598" stroke="#E8EAED" stroke-width="2" rx="16.726"/><mask id="b" width="172" height="157" x="98" y="41" maskUnits="userSpaceOnUse" style="mask-type:alpha"><rect width="153.984" height="169.051" x="268.751" y="42.64" fill="#E8EAED" stroke="#DADCE0" stroke-width="2" rx="5.359" transform="rotate(90 268.751 42.64)"/></mask><g mask="url(#b)"><path fill="#FFBB01" d="m226.931 97.52-52.472-41.367c-3.902-3.077-9.777-.907-10.573 3.902l-10.758 64.69c-.802 4.809 4.074 8.656 8.778 6.918l63.23-23.323c4.697-1.732 5.697-7.743 1.801-10.82h-.006Z"/><path fill="#428EFF" d="M78.317 154.98v.004c.49 10.654 9.526 18.893 20.18 18.402l64.694-2.982c10.655-.491 18.894-9.526 18.403-20.181l-.001-.004c-.491-10.654-9.526-18.893-20.18-18.402l-64.694 2.982c-10.654.491-18.893 9.526-18.402 20.181Z"/><path fill="#E8EAED" d="M195.303 142.031c0-17.266 13.997-31.263 31.263-31.263 17.266 0 31.263 13.997 31.263 31.263 0 17.266-13.997 31.263-31.263 31.263-17.266 0-31.263-13.997-31.263-31.263Z"/><path fill="#38A852" d="M81.86 106.78c0-14.929 12.102-27.031 27.031-27.031 14.929 0 27.031 12.102 27.031 27.031 0 14.929-12.102 27.032-27.031 27.032-14.93 0-27.032-12.103-27.032-27.032Z"/></g><rect width="153.984" height="169.051" x="268.751" y="42.641" stroke="#E8EAED" stroke-width="2" rx="5.359" transform="rotate(90 268.751 42.64)"/><path fill="#202124" stroke="#E8EAED" stroke-width="2" d="M45.4 39.659a6.09 6.09 0 0 1 6.087-5.88h33.272a6.09 6.09 0 0 1 6.087 5.88l1.284 37.223a6.09 6.09 0 0 1-6.087 6.3h-35.84a6.09 6.09 0 0 1-6.086-6.3L45.4 39.66ZM90.846 199.608a6.09 6.09 0 0 1-6.087 5.88H51.487a6.09 6.09 0 0 1-6.087-5.88l-1.283-37.224a6.09 6.09 0 0 1 6.086-6.3h35.84a6.09 6.09 0 0 1 6.086 6.3l-1.283 37.224Z"/><rect width="93.718" height="93.718" x="20.821" y="72.774" fill="#202124" stroke="#E8EAED" stroke-width="2" rx="46.859"/><mask id="c" width="78" height="78" x="28" y="81" maskUnits="userSpaceOnUse" style="mask-type:alpha"><rect width="75.106" height="75.106" x="29.685" y="82.524" fill="#E8EAED" stroke="#DADCE0" stroke-width="2" rx="37.553"/></mask><g mask="url(#c)"><path fill="#428EFF" d="M51.73 156.756v.004c.492 10.655 9.527 18.894 20.182 18.403l64.693-2.983c10.655-.491 18.894-9.526 18.403-20.181v-.003c-.492-10.655-9.527-18.894-20.181-18.403l-64.694 2.982c-10.654.492-18.893 9.527-18.402 20.181Z"/><path fill="#FF5145" d="M81.862 106.783c0-14.929 12.102-27.031 27.031-27.031 14.929 0 27.032 12.102 27.032 27.031 0 14.929-12.103 27.031-27.032 27.031s-27.03-12.102-27.03-27.031Z"/></g><rect width="75.106" height="75.106" x="29.684" y="82.524" stroke="#E8EAED" stroke-width="2" rx="37.553"/></g><defs><clipPath id="a"><rect width="302" height="170" fill="#fff" rx="11.049"/></clipPath></defs></svg>