<svg xmlns="http://www.w3.org/2000/svg" width="303" height="170" fill="none"><g clip-path="url(#a)"><rect width="301.75" height="170" x=".75" fill="#428EFF" rx="12"/><g clip-path="url(#b)"><path fill="#38A852" stroke="#202124" stroke-linejoin="round" stroke-width="2" d="m-126.828 364.191 632.457-632.549V-2.605L26.611 476.482h-142.476c-5.891 0-10.681-4.765-10.694-10.67l-.269-101.608v-.013Z"/><path fill="#38A852" stroke="#202124" stroke-linecap="round" stroke-linejoin="round" stroke-width="2" d="M72.05 364.193 505.422-69.241v265.753L229.512 472.461a13.688 13.688 0 0 1-9.683 4.01H83.014c-5.891 0-10.681-4.765-10.694-10.671l-.27-101.607Z"/><path fill="#38A852" stroke="#202124" stroke-linecap="round" stroke-linejoin="round" stroke-width="2" d="m268.321 365.46 632.457-632.55-3.163 265.753L418.597 477.75H279.272c-5.891 0-10.682-4.766-10.694-10.671l-.269-101.607.012-.013Z"/><path fill="#FF5145" stroke="#202124" stroke-miterlimit="10" stroke-width="2" d="m-126.828 199.458 632.457-632.55v265.753L26.611 311.749h-142.476c-5.891 0-10.681-4.766-10.694-10.671l-.269-101.608v-.012Z"/><path fill="#FFBB01" stroke="#202124" stroke-linecap="round" stroke-linejoin="round" stroke-width="2" d="m72.05 199.459 433.371-433.434V31.778L229.512 307.727a13.688 13.688 0 0 1-9.683 4.01H83.014c-5.891 0-10.681-4.765-10.694-10.671l-.27-101.607Z"/><path fill="#38A852" stroke="#202124" stroke-miterlimit="10" stroke-width="2" d="m268.321 199.073 632.457-632.55-3.163 265.753-473.946 474.015a17.314 17.314 0 0 1-12.232 5.073H279.272c-5.891 0-10.682-4.765-10.694-10.671l-.269-101.607.012-.013Z"/><path fill="#FFBB01" stroke="#202124" stroke-linecap="round" stroke-linejoin="round" stroke-width="2" d="m-126.93 35.16 433.37-433.433v265.753L30.531 143.429a13.687 13.687 0 0 1-9.682 4.01h-136.815c-5.892 0-10.682-4.766-10.695-10.671l-.269-101.608Z"/><path fill="#E8EAED" stroke="#202124" stroke-miterlimit="10" stroke-width="2" d="M-120.021 32.062H20.264c4.47 0 8.108 3.638 8.108 8.108v9.3H-128.13v-9.3c0-4.47 3.638-8.108 8.108-8.108Z"/><path fill="#fff" stroke="#202124" stroke-miterlimit="10" stroke-width="2" d="M20.253 148.119h-140.286c-4.47 0-8.107-3.638-8.107-8.109V49.176h156.5v90.834c0 4.471-3.637 8.109-8.107 8.109Z"/><path fill="#FF5145" stroke="#202124" stroke-linecap="round" stroke-linejoin="round" stroke-width="2" d="m72.05 35.16 433.371-433.433v265.753L229.512 143.429a13.688 13.688 0 0 1-9.683 4.01H83.014c-5.891 0-10.681-4.766-10.694-10.671L72.05 35.16Z"/><path fill="#FFBB01" stroke="#202124" stroke-linejoin="round" stroke-width="2" d="m271.119 33.841 629.659-631.616-3.163 265.753-473.306 473.374a19.49 19.49 0 0 1-13.794 5.713H279.272c-5.891 0-10.682-4.765-10.694-10.67l-.269-96.94 2.81-5.614Z"/><path fill="#E8EAED" stroke="#202124" stroke-miterlimit="10" stroke-width="2" d="M78.276 32.062h140.286c4.47 0 8.107 3.638 8.107 8.108v9.3h-156.5v-9.3c0-4.47 3.637-8.108 8.107-8.108Z"/><path fill="#202124" d="M80.109 43.707a2.946 2.946 0 1 0 0-5.892 2.946 2.946 0 0 0 0 5.892ZM89.229 43.707a2.946 2.946 0 1 0 0-5.892 2.946 2.946 0 0 0 0 5.892Z"/><path fill="#fff" stroke="#202124" stroke-miterlimit="10" stroke-width="2" d="M218.551 148.119H78.265c-4.47 0-8.107-3.638-8.107-8.109V49.176h156.5v90.834c0 4.471-3.637 8.109-8.107 8.109Z"/><path fill="#E8EAED" stroke="#202124" stroke-miterlimit="10" stroke-width="2" d="M276.572 32.062h140.286c4.47 0 8.107 3.638 8.107 8.108v9.3h-156.5v-9.3c0-4.47 3.637-8.108 8.107-8.108Z"/><path fill="#202124" d="M278.405 43.707a2.946 2.946 0 1 0 0-5.892 2.946 2.946 0 0 0 0 5.892ZM287.525 43.707a2.946 2.946 0 1 0 0-5.892 2.946 2.946 0 0 0 0 5.892Z"/><path fill="#fff" stroke="#202124" stroke-miterlimit="10" stroke-width="2" d="M416.847 148.119H276.561c-4.47 0-8.107-3.638-8.107-8.109V49.176h156.5v90.834c0 4.471-3.637 8.109-8.107 8.109Z"/></g></g><defs><clipPath id="a"><rect width="301.75" height="170" x=".75" fill="#fff" rx="12"/></clipPath><clipPath id="b"><path fill="#fff" d="M-138.885-364.943h644.466v842.887h-644.466z"/></clipPath></defs></svg>