<svg xmlns="http://www.w3.org/2000/svg" width="760" height="512" fill="none"><g clip-path="url(#a)"><path fill="#DADCE0" stroke="#202124" stroke-linecap="round" stroke-linejoin="round" stroke-width="2" d="M588.945 461.42c100.322 12.776 191.997-58.179 204.773-158.5 12.786-100.318-58.191-191.99-158.5-204.773-100.321-12.776-191.997 58.179-204.773 158.5-12.773 100.312 58.192 191.991 158.5 204.773Z"/><path fill="#428EFF" stroke="#202124" stroke-linecap="round" stroke-linejoin="round" stroke-width="2" d="M431.091 307.77c34.913 94.774 103.362 24.331 130.151-20.962 31.712-53.595 49.751-121.498 58.467-189.96.221.002.449.017.667.028l2.946.166c.486.03.983.063 1.482.087-27.62 216.818-105.595 322.656-162.521 287.96-15.987-22.717-26.852-49.108-31.205-77.312l.013-.007Z"/><path fill="#FF5145" stroke="#202124" stroke-linecap="round" stroke-linejoin="round" stroke-width="2" d="M523.177 439.906c-24.362-13.54-45.113-32.394-60.884-54.814 56.925 34.697 134.898-71.132 162.508-287.954.164.014.3.019.455.03l4.139.354c.266.027.544.049.809.076-16.032 125.838-51.544 297.207-107.049 342.311l.01.003.012-.006Z"/><path fill="#38A852" stroke="#202124" stroke-linecap="round" stroke-linejoin="round" stroke-width="2" d="m630.211 97.58.123.01 4.893.56-46.275 363.283c-23.827-3.036-45.993-10.534-65.775-21.527 55.508-45.113 91.007-216.476 107.04-342.314l-.006-.012Z"/><path fill="#202124" stroke="#202124" stroke-linecap="round" stroke-linejoin="round" stroke-width="2" d="M780.304 352.248c-57.555 82.993-106.162-2.359-120.747-52.92-17.267-59.836-17.706-130.089-8.978-198.558a14.6 14.6 0 0 0-.66-.142l-2.888-.58c-.486-.093-.969-.195-1.458-.279-27.611 216.822 21.329 338.82 85.146 319.505 21.172-17.987 38.306-40.808 49.595-67.023l-.01-.003Z"/><path fill="#DADCE0" stroke="#202124" stroke-linecap="round" stroke-linejoin="round" stroke-width="2" d="M658.033 457.081c26.966-6.999 51.784-20.054 72.673-37.801-63.817 19.315-112.756-102.683-85.146-319.505a50.01 50.01 0 0 1-.455-.092l-4.086-.695c-.271-.04-.53-.087-.802-.128-16.023 125.841-24.61 300.644 17.806 358.217l.01.004Z"/><path fill="#FFBB01" stroke="#202124" stroke-linecap="round" stroke-linejoin="round" stroke-width="2" d="M640.22 98.85s-.082-.006-.11-.016l-4.88-.693-46.276 363.282c23.827 3.036 47.165 1.336 69.082-4.352-42.422-57.586-33.839-232.38-17.816-358.22Z"/><path fill="#DADCE0" d="m714.949 294.936-201.483-25.661 20.36-159.826 73.28-21.255 62.625 7.98 65.565 38.943-20.36 159.825.013-.006Z"/><path fill="#428EFF" stroke="#202124" stroke-linecap="round" stroke-linejoin="round" stroke-width="2" d="m590.364 148.845-48.667-6.197-12.333 96.783 48.667 6.197 12.333-96.783ZM668.101 258.668c27.576 3.509 52.768-15.994 56.287-43.566 3.519-27.573-15.99-52.778-43.575-56.291-27.576-3.509-52.769 15.994-56.288 43.566-3.509 27.576 16.003 52.772 43.576 56.291Z"/><path fill="#202124" d="m592.671 257.985-9.382-1.193 41.648-114.003 9.391 1.196-41.661 114.009.004-.009Z"/><path fill="#FFBB01" stroke="#202124" stroke-linecap="round" stroke-linejoin="round" stroke-width="2" d="M637.725 78.475c-111.178-14.17-212.793 64.484-226.956 175.674-14.159 111.182 64.484 212.794 175.675 226.957 111.191 14.162 212.794-64.485 226.956-175.675C827.559 194.25 748.916 92.637 637.725 78.475Zm-48.78 382.945c-100.321-12.776-171.273-104.461-158.5-204.773 12.773-100.312 104.451-171.276 204.773-158.5 100.321 12.776 171.282 104.464 158.5 204.773-12.782 100.309-104.461 171.273-204.773 158.5Z"/><path stroke="#202124" stroke-linecap="round" stroke-linejoin="round" stroke-width="2" d="m656.386 287.475-89.104-11.355"/><path fill="#DADCE1" stroke="#202124" stroke-linecap="round" stroke-linejoin="round" stroke-width="2" d="M284.4 362.475a8.707 8.707 0 0 0-5.07-2.8c-6.39-1.06-12.79-1.13-19.13-.2 2.05-2.9 3.16-6.48 2.97-10.28l-1.48-29.96a8.713 8.713 0 0 0-3.58-6.61 8.678 8.678 0 0 0-7.37-1.35h-.03l-33.38 9.16a21.576 21.576 0 0 0-19.91-6.96c-2.22-.85-4.7-1.02-7.12-.36h-.05l-21.24 5.84c-6.13 1.68-9.74 8.03-8.07 14.16l1.29 4.71c1.68 6.11 8 9.73 14.11 8.08h.04l21.25-5.84c1.35-.37 2.58-.97 3.67-1.76l9.09 13.37-26.52 67.96c-.48.11-.95.24-1.43.39l-41.8-47.55 2.11-.81c7.53-2.88 11.69-10.59 9.68-17.94-2.01-7.35-9.53-11.86-17.47-10.49l-28.07 4.81c-4.57.79-8.59 3.42-11.01 7.22-2.22 3.48-2.88 7.71-1.82 11.58l1.47 5.36c1.06 3.88 3.78 7.17 7.47 9.04 4.02 2.04 8.82 2.26 13.15.6l1.79-.68 3.62 4.12c.11.15.25.31.39.48l8.87 10.11-5.15 10.04a62.314 62.314 0 0 0-34.44-.58l-.24.06c-3.29.9-6.49 2.07-9.58 3.49l-29.36-42.54c-.05-2-.6-4.01-1.7-5.83-3.38-5.63-10.72-7.47-16.35-4.08-5.03 3.02-7.03 9.18-5 14.48-2.16 1.92-5.11 5.37-11.92 16.89-.42.72-.81 1.38-1.16 1.98-2.28 3.89-2.54 4.24-3.16 4.66-1.09.74-2.36 1.14-3.49 1.5-.72.23-1.47.46-2.24.81-3.78 1.7-5.95 5.35-5.51 9.31.29 2.58 1.64 4.85 3.81 6.41 3.87 2.77 10.51 2.93 15.36 1.85 4.92-1.08 7.59-3.15 14.05-8.16 1.21-.94 2.61-2.02 4.23-3.26 1.1-.84 4.44-3.4 5.09-3.77l.09-.04c1.62-.73 3.43-1.06 5.5-1.01l15.78 22.86c-.15.4-.26.81-.35 1.22a60.456 60.456 0 0 0-16 59.23c4.27 15.59 14.36 28.58 28.41 36.58 13.97 7.96 30.2 10.03 45.72 5.84l.24-.06c20.99-5.76 37.15-22.35 42.57-43.13a8.677 8.677 0 0 0 2.8-5.07c.39-2.35.64-4.72.76-7.09l23.59-4.29c6.27-1.15 11.8-4.88 15.19-10.27 1.75-2.78 2.85-5.88 3.29-9.07a61.461 61.461 0 0 0 9.32 15.58 8.72 8.72 0 0 0 4.95 3.01 60.467 60.467 0 0 0 59 16.06c.08-.02.16-.04.23-.06 15.59-4.27 28.58-14.36 36.58-28.41s10.05-30.37 5.78-45.95c-5.76-20.99-22.35-37.15-43.13-42.57l.02-.02Zm-94.02 78.36c.3 1.08-.34 2.2-1.42 2.49-.51.14-1.07.07-1.53-.19a2.03 2.03 0 0 1-.95-1.23 2.06 2.06 0 0 1 .19-1.54c.26-.46.71-.81 1.23-.95 1.08-.29 2.19.34 2.48 1.42Z"/><path stroke="#202124" stroke-linejoin="round" stroke-width="2" d="m42.14 369.195-.41.27s.07-.03.1-.06c.11-.06.21-.13.31-.21ZM41.34 369.655l.25-.09.14-.09c-.13.08-.26.13-.39.19v-.01Z"/><path fill="#FF5445" stroke="#000" stroke-miterlimit="10" stroke-width="2" d="M18.85 405.825c3.61-.8 5.14-2.39 14.86-9.84 5.1-3.9 5.83-4.35 6.91-4.84 4.99-2.24 10.01-1.95 13.59-1.31l-10.4-17.31c-2.04.63-5.41 1.89-8.58 4.51-1.26 1.04-3.51 3.13-10.63 15.18-3.42 5.79-4.25 7.58-6.91 9.4-3.76 2.56-7.58 2.73-7.5 3.47.09.76 4.27 1.7 8.66.74Z"/><path fill="#B7B5B5" stroke="#000" stroke-miterlimit="10" stroke-width="2" d="m40.77 369.855 38.36 55.58 2.24-1.35-38.44-55.71-.39.56-.41.26c-.1.08-.2.15-.31.21-.04.02-.07.04-.1.06l-.14.09-.25.09-.16.05-.41.15.01.01Z"/><path stroke="#202124" stroke-linejoin="round" stroke-width="2" d="M41.73 369.465s.07-.03.1-.06c.11-.06.21-.13.31-.21l-.41.27Z"/><path fill="#B7B5B5" stroke="#000" stroke-miterlimit="10" stroke-width="2" d="M37.4 368.305a3.231 3.231 0 0 0 3.77 1.4l.16-.05c.13-.05.26-.11.39-.19l.41-.27c1.28-.98 1.65-2.79.8-4.21a3.224 3.224 0 0 0-4.43-1.1c-1.53.92-2.02 2.9-1.1 4.43v-.01Z"/><path stroke="#202124" stroke-linejoin="round" stroke-width="2" d="M41.73 369.465s.07-.03.1-.06c.11-.06.21-.13.31-.21l-.41.27Z"/><path fill="#00AD40" stroke="#000" stroke-miterlimit="10" stroke-width="2" d="M219.19 434.755c7.57 27.6 36.08 43.84 63.68 36.27s43.84-36.08 36.27-63.68-36.08-43.84-63.68-36.27-43.84 36.08-36.27 63.68Zm9.36-2.57c-6.15-22.43 7.05-45.6 29.48-51.75 22.43-6.15 45.6 7.05 51.75 29.48 6.15 22.43-7.05 45.6-29.48 51.75-22.43 6.15-45.6-7.05-51.75-29.48Z"/><path fill="#00AD40" stroke="#000" stroke-miterlimit="10" stroke-width="2" d="M258.48 382.095c-21.52 5.9-34.18 28.13-28.28 49.65 1.07 3.89 2.67 7.49 4.71 10.74l-7.2 12.42a53.312 53.312 0 0 1-10.16-19.7c-7.82-28.5 8.95-57.95 37.46-65.76a53.367 53.367 0 0 1 22.89-1.19l-7.19 12.42c-4.02-.15-8.14.29-12.22 1.42h-.01ZM57.5 479.095c7.57 27.6 36.08 43.84 63.68 36.27s43.84-36.08 36.27-63.68-36.08-43.84-63.68-36.27-43.84 36.08-36.27 63.68Zm9.36-2.57c-6.15-22.43 7.05-45.6 29.48-51.75 22.43-6.15 45.6 7.05 51.75 29.48 6.15 22.43-7.05 45.6-29.48 51.75-22.43 6.15-45.6-7.05-51.75-29.48Z"/><path fill="#00AD40" stroke="#000" stroke-miterlimit="10" stroke-width="2" d="M146.43 454.705c-5.9-21.52-28.13-34.18-49.65-28.28a40.234 40.234 0 0 0-10.74 4.71l-12.42-7.2a53.312 53.312 0 0 1 19.7-10.16c28.5-7.82 57.95 8.95 65.76 37.46a53.367 53.367 0 0 1 1.19 22.89l-12.42-7.19c.15-4.02-.29-8.14-1.42-12.22v-.01Z"/><path fill="#FB0" stroke="#000" stroke-miterlimit="10" stroke-width="2" d="m110.555 467.803 36.631-71.492-5.393-2.763-36.632 71.491 5.394 2.764ZM199.3 437.905l30.15-77.18c1.11-2.87-.32-6.1-3.19-7.21l-6.3-2.43-32.15 82.38 11.5 4.44h-.01Z"/><path fill="#B7B5B5" stroke="#000" stroke-miterlimit="10" stroke-width="2" d="m179.25 437.725-60.03-68.28a2.69 2.69 0 0 1 .23-3.8 2.69 2.69 0 0 1 3.8.23l60.03 68.28-4.04 3.57h.01Z"/><path fill="#FB0" stroke="#000" stroke-miterlimit="10" stroke-width="2" d="m178.31 436.745-49.81-56.72c-.82-.93-.58-2.48.54-3.46 1.12-.99 2.68-1.03 3.5-.11l49.81 56.72-4.04 3.57Z"/><path fill="#FF5445" stroke="#202124" stroke-linejoin="round" stroke-width="2" d="m113.05 373.725 26.6-10.17c3.33-1.27 5.22-4.51 4.4-7.52-.83-3.01-4.11-4.83-7.62-4.22l-28.07 4.81c-4.12.71-6.88 4.41-5.91 7.93l1.47 5.36c.97 3.52 5.23 5.3 9.13 3.81Z"/><path fill="#FB0" stroke="#000" stroke-miterlimit="10" stroke-width="2" d="M102.04 465.665a6.731 6.731 0 0 0 7.69 4.84l81.91-14.88c8.12-1.48 13.23-9.6 11.05-17.56-2.18-7.96-10.72-12.34-18.46-9.47l-78.05 28.98a6.73 6.73 0 0 0-4.15 8.09h.01Zm79.96-22.52a6.669 6.669 0 0 1 4.67-8.19c3.55-.97 7.22 1.11 8.19 4.67a6.669 6.669 0 0 1-4.67 8.19 6.669 6.669 0 0 1-8.19-4.67Z"/><path fill="#B7B5B5" stroke="#000" stroke-miterlimit="10" stroke-width="2" d="m177.38 327.895 20.37-5.59c5.31-1.46 10.96.63 14.05 5.18l19.22 28.26-5.03 3.42-18.63-27.39a7.622 7.622 0 0 0-8.32-3.07l-19.95 5.47-1.72-6.28h.01Z"/><path fill="#3184FF" stroke="#000" stroke-miterlimit="10" stroke-width="2" d="m174.101 337.48 21.237-5.821a2.83 2.83 0 0 0 1.981-3.478l-1.29-4.706a2.831 2.831 0 0 0-3.478-1.981l-21.236 5.821a2.831 2.831 0 0 0-1.982 3.478l1.291 4.706a2.828 2.828 0 0 0 3.477 1.981Z"/><path stroke="#000" stroke-miterlimit="10" stroke-width="2" d="m213.78 330.425 39.22-10.76 1.48 29.96a7.658 7.658 0 0 1-5.63 7.77l-14.71 4.03M253.9 337.725l-29.62 8.12M252.75 328.895l-33.33 9.14M254.78 346.625l-25.56 7.01M240.49 323.105l7.14 34.63M227.44 326.685l13.69 32.83"/><path fill="#FB0" stroke="#000" stroke-miterlimit="10" stroke-width="2" d="M269.78 424.665a3.12 3.12 0 1 0 5.189-3.466l-50.605-75.764a3.12 3.12 0 1 0-5.189 3.466l50.605 75.764Z"/><path fill="#3184FF" stroke="#202124" stroke-miterlimit="10" stroke-width="2" d="M215.999-20.725C284.856-27.709 346.436 22.53 353.42 91.386l10.863 107.096c.988 9.747-6.12 18.473-15.878 19.462L134.214 239.67c-9.748.988-18.473-6.12-19.463-15.878l-10.863-107.096C96.904 47.84 147.143-13.741 215.999-20.724Z"/><path fill="#FB0" stroke="#202124" stroke-linecap="round" stroke-linejoin="round" stroke-width="2" d="M216.839-12.448c64.293-6.521 121.783 40.38 128.304 104.674L355.62 195.52c.738 7.278-4.577 13.794-11.855 14.532l-206.58 20.953c-7.279.738-13.794-4.577-14.532-11.855l-10.477-103.296C105.654 51.562 152.555-5.928 216.849-12.449l-.01.001Z"/><path fill="#3184FF" stroke="#202124" stroke-miterlimit="10" stroke-width="2" d="M299.526 96.929c-1.345-13.258-13.181-22.915-26.439-21.57-13.237 1.343-22.852 13.044-21.585 26.289a23.989 23.989 0 0 0 5.859 13.603l19.405 21.729c1.432 1.601 4.019 1.339 5.1-.517l14.647-25.184a24.004 24.004 0 0 0 3.023-14.352l-.01.002Zm-23.424 8.156a5.757 5.757 0 0 1-6.303-5.141 5.757 5.757 0 0 1 5.142-6.303 5.756 5.756 0 0 1 6.302 5.142 5.756 5.756 0 0 1-5.141 6.302ZM219.137 20.583c-16.822 1.706-29.06 16.743-27.354 33.566 1.706 16.822 16.715 29.095 33.537 27.39 16.822-1.707 29.125-16.75 27.418-33.573-1.706-16.822-16.746-29.093-33.601-27.383Zm22.971 16.14-8.985.912c-1.364-3.712-3.13-7.22-5.31-10.427a24.572 24.572 0 0 1 14.295 9.515ZM219.8 26.795a43.02 43.02 0 0 1 7.042 11.477l-11.637 1.18a43.336 43.336 0 0 1 4.595-12.657Zm-20.507 32.741c-.682-1.904-1.2-3.913-1.413-6.017-.214-2.104-.12-4.174.176-6.178l10.295-1.044c-.043 2.033-.021 4.07.189 6.141.21 2.072.596 4.061 1.048 6.054l-10.295 1.044Zm3.119 5.844 8.986-.911c1.363 3.712 3.129 7.22 5.309 10.427a24.433 24.433 0 0 1-14.295-9.516Zm6.513-25.29-8.985.91a24.517 24.517 0 0 1 12.093-12.191c-1.482 3.567-2.518 7.37-3.108 11.28Zm15.796 35.218a43.048 43.048 0 0 1-7.043-11.476l11.637-1.18a43.334 43.334 0 0 1-4.594 12.656Zm5.285-18.887-14.267 1.447c-.483-1.979-.891-3.976-1.101-6.048-.211-2.072-.203-4.134-.136-6.147l14.267-1.447c.481 1.958.892 3.977 1.102 6.049.21 2.071.199 4.1.135 6.146Zm2.481 16.863c1.482-3.567 2.517-7.37 3.107-11.28l8.986-.911c-2.421 5.321-6.684 9.701-12.093 12.191Zm3.671-17.487c.043-2.032.021-4.069-.189-6.141s-.597-4.06-1.048-6.054l10.295-1.044c.681 1.904 1.199 3.913 1.413 6.017.213 2.104.12 4.174-.176 6.178l-10.295 1.044ZM205.323 207.208c-1.525.155-2.924-.278-4.179-1.312-1.265-1.032-1.969-2.305-2.124-3.83l-5.033-49.629c-.155-1.524.278-2.924 1.311-4.178 1.032-1.266 2.306-1.97 3.83-2.124l64.895-6.583c1.525-.154 2.924.279 4.179 1.312 1.265 1.032 1.969 2.306 2.123 3.83l5.034 49.629c.155 1.525-.278 2.924-1.311 4.179-1.032 1.265-2.306 1.969-3.83 2.124l-64.895 6.582Zm29.518-32.115 30.284-24.568-.532-5.25-30.332 24.096-34.552-17.514.532 5.249 34.6 17.987Z"/><path fill="#3184FF" stroke="#202124" stroke-miterlimit="10" stroke-width="2" d="M314.05 196.18a6.103 6.103 0 0 1-2.497-.246 6.398 6.398 0 0 1-2.121-1.13l-29.596-24.145a6.22 6.22 0 0 1-1.533-1.851 6.073 6.073 0 0 1-.742-2.397l-2.215-21.836c-.17-1.675.286-3.174 1.355-4.497 1.071-1.313 2.449-2.06 4.134-2.231l21.836-2.215a6.12 6.12 0 0 1 2.497.246 6.256 6.256 0 0 1 2.122 1.14l29.604 24.221c1.289 1.051 2.025 2.43 2.198 4.137.174 1.707-.271 3.205-1.322 4.494l-19.621 24.05a6.447 6.447 0 0 1-1.808 1.529 5.653 5.653 0 0 1-2.28.73l-.011.001Zm-23.725-40.793c1.278-.129 2.306-.689 3.106-1.67.801-.982 1.142-2.112 1.013-3.378-.128-1.267-.689-2.306-1.67-3.106-.982-.801-2.112-1.142-3.379-1.013-1.266.128-2.305.689-3.105 1.67-.801.982-1.142 2.112-1.014 3.378.129 1.267.69 2.306 1.671 3.106.982.801 2.112 1.142 3.378 1.013ZM142.976 213.033s15.899-6.526 26.911-18.684c10.865-12.002 11.925-30.417 11.925-30.417l-8.572-2.504s-1.047 16.625-11.279 27.489c-10.359 11.007-25.275 16.956-25.275 16.956l6.29 7.16Z"/><path fill="#3184FF" stroke="#202124" stroke-miterlimit="10" stroke-width="2" d="m188.922 155.966-56.715 5.753.965 9.511 56.714-5.753-.964-9.511ZM164.023 149.695l-8.706.883.883 8.707 8.706-.883-.883-8.707ZM143.281 178.404c-.074.344 6.324 12.948 18.183 19.945 11.848 6.997 24.882 10.285 24.882 10.285l4.771-8.347s-11.415-2.411-21.758-7.717c-10.343-5.307-15.768-15.277-15.768-15.277l-10.31 1.111ZM244.157 107.393l.112 1.106c.386 4.45-.825 8.228-3.7 11.535-2.895 3.32-6.474 5.136-10.935 5.534-4.471.4-8.307-.741-11.744-3.505-3.423-2.744-5.275-6.243-5.684-10.703l-.112-1.106-6.869.61.113 1.106c.497 5.763 2.946 10.655 7.234 14.548 4.037 3.658 8.817 5.657 14.204 5.945l.957 10.716 6.879-.611-.957-10.716c5.254-1.238 9.6-4.054 12.925-8.371 3.537-4.589 5.065-9.841 4.546-15.602l-.113-1.106-6.868.61.012.01Z"/><path fill="#3184FF" stroke="#202124" stroke-miterlimit="10" stroke-width="2" d="M229.062 119.282c2.537-.225 4.614-1.347 6.169-3.338 1.536-1.967 2.193-4.257 1.965-6.826l-1.754-19.54c-.219-2.472-1.294-4.52-3.198-6.074-1.893-1.554-4.098-2.23-6.569-2.002-2.473.219-4.523 1.283-6.113 3.147-1.588 1.875-2.287 4.072-2.057 6.554l1.754 19.539c.227 2.559 1.291 4.707 3.151 6.362 1.884 1.685 4.116 2.413 6.664 2.187l-.012-.009ZM197.415 120.366a23.009 23.009 0 0 0 2.498-13.008c-1.287-12.69-12.662-21.97-25.351-20.682-12.689 1.287-21.969 12.662-20.682 25.351 1.287 12.689 12.662 21.969 25.351 20.682a23.006 23.006 0 0 0 12.262-5.073l21 17.132 5.932-7.271-21-17.133-.01.002Zm-5.725-12.174c.827 8.158-5.134 15.466-13.293 16.293-8.159.828-15.466-5.134-16.294-13.292-.827-8.159 5.134-15.467 13.293-16.294 8.159-.828 15.466 5.134 16.294 13.293Z"/></g><defs><clipPath id="a"><path fill="#fff" d="M.5-15.365h818.57v542.3H.5z"/></clipPath></defs></svg>